<?xml version="1.0" standalone="no"?><!DOCTYPE svg PUBLIC "-//W3C//DTD SVG 1.1//EN" "http://www.w3.org/Graphics/SVG/1.1/DTD/svg11.dtd"><svg t="1744611145208" class="icon" viewBox="0 0 1024 1024" version="1.1" xmlns="http://www.w3.org/2000/svg" p-id="1266" xmlns:xlink="http://www.w3.org/1999/xlink" width="256" height="256"><path d="M764.72623408 482.44811852c15.58300445 0 30.87473778 1.17722075 45.82665481 3.44670815V186.71085037L633.5814163 9.73937778H109.42691555c-36.51811555 0-66.11854222 29.60042667-66.11854222 66.11854222v821.11753482c0 36.51811555 29.60042667 66.11854222 66.11854222 66.11854221h408.92036742c-35.91130075-49.85590518-57.13768297-111.01070222-57.13768297-177.15351703 0-167.61438815 135.89010963-303.49236148 303.51663408-303.49236148zM213.99324445 297.27250963h425.86263703v117.86770962h-425.86263703v-117.86770962zM426.92456297 687.05393778H213.99324445v-117.86770963H426.92456297v117.86770963z" p-id="1267"></path><path d="M987.26949925 735.91466667h-52.02830222c-27.69502815 0-34.36999111-16.23836445-14.75773628-36.0569363l36.79725036-37.06424889c0.59467852-0.61895111 0.59467852-1.60199111 0-2.22094223l-35.11030519-35.45012147-35.0496237-35.38944c-0.63108741-0.59467852-1.60199111-0.59467852-2.23307852 0l-36.72443259 37.13706667c-19.61225482 19.74575408-35.65643852 13.07079111-35.65643852-14.96405334v-52.4288c0-0.87381333-0.74031408-1.61412741-1.61412741-1.61412741h-99.14140443c-0.87381333 0.07281778-1.55344592 0.74031408-1.55344593 1.61412741v52.4288c0 28.03484445-16.0441837 34.70980741-35.71712 14.96405334l-36.7365689-37.13706667c-0.61895111-0.59467852-1.60199111-0.59467852-2.22094222 0l-35.0496237 35.38944-35.12244148 35.45012147c-0.58254222 0.61895111-0.58254222 1.60199111 0 2.22094223l36.79725037 37.06424889c19.61225482 19.81857185 12.93729185 36.0569363-14.7577363 36.0569363h-52.02830222c-0.81313185 0-1.55344592 0.67963259-1.55344592 1.55344592v100.14871704c0 0.41263408 0.15777185 0.80099555 0.46117925 1.09226667 0.29127111 0.29127111 0.67963259 0.44904297 1.09226667 0.44904295h52.02830222c27.69502815 0 34.36999111 16.25050075 14.7577363 35.99625483l-36.79725037 37.13706667c-0.58254222 0.61895111-0.58254222 1.60199111 0 2.22094222l35.0496237 35.3773037 35.11030519 35.45012148c0.61895111 0.59467852 1.60199111 0.59467852 2.22094222 0l36.73656889-37.13706667c19.6729363-19.74575408 35.71712-13.08292741 35.71712 14.89123555v52.50161779c-0.0121363 0.41263408 0.13349925 0.83740445 0.42477037 1.14081185s0.69176889 0.47331555 1.11653926 0.47331555h99.14140444a1.6177683 1.6177683 0 0 0 1.61412741-1.6141274V963.10613333c0-27.97416297 16.0441837-34.63698963 35.65643852-14.89123555l36.72443259 37.13706667c0.63108741 0.59467852 1.60199111 0.59467852 2.23307852 0l35.0496237-35.45012148 35.11030519-35.37730372c0.59467852-0.61895111 0.59467852-1.60199111 0-2.22094222l-36.79725037-37.13706666c-19.61225482-19.74575408-12.93729185-35.99625482 14.83055407-35.99625482h51.96762075c0.41263408 0 0.80099555-0.16990815 1.09226666-0.44904296 0.29127111-0.29127111 0.44904297-0.67963259 0.44904296-1.09226667v-100.14871703c0.02427259-0.89808592-0.72817778-1.56558222-1.52917334-1.56558222zM764.72623408 863.09091555c-42.40421925-0.23058963-76.61643852-34.77048889-76.42225778-77.17470814-0.14563555-42.37994667 34.05444741-76.88343703 76.42225778-77.10189038 42.37994667 0.21845333 76.58002963 34.7219437 76.43439407 77.10189038 0.18204445 42.41635555-34.03017482 76.95625482-76.43439407 77.17470814z" p-id="1268"></path></svg>