<?xml version="1.0" standalone="no"?><!DOCTYPE svg PUBLIC "-//W3C//DTD SVG 1.1//EN" "http://www.w3.org/Graphics/SVG/1.1/DTD/svg11.dtd"><svg t="1744611196005" class="icon" viewBox="0 0 1024 1024" version="1.1" xmlns="http://www.w3.org/2000/svg" p-id="1558" xmlns:xlink="http://www.w3.org/1999/xlink" width="256" height="256"><path d="M239.957333 128v85.333333a42.666667 42.666667 0 0 0 34.986667 41.984l7.68 0.682667h458.752a42.666667 42.666667 0 0 0 41.898667-34.986667l0.682666-7.68v-85.333333h101.376a42.666667 42.666667 0 0 1 42.666667 42.666667v810.666666a42.666667 42.666667 0 0 1-42.666667 42.666667H138.666667a42.666667 42.666667 0 0 1-42.666667-42.666667V170.666667a42.666667 42.666667 0 0 1 42.666667-42.666667h101.290666zM714.666667 768H405.333333a21.333333 21.333333 0 0 0-20.736 16.469333L384 789.333333v21.333334a21.333333 21.333333 0 0 0 16.469333 20.736l4.864 0.597333h309.333334a21.333333 21.333333 0 0 0 20.736-16.469333l0.597333-4.864v-21.333334a21.333333 21.333333 0 0 0-21.333333-21.333333zM298.666667 768h-21.333334a21.333333 21.333333 0 0 0-20.736 16.469333L256 789.333333v21.333334a21.333333 21.333333 0 0 0 16.469333 20.736l4.864 0.597333h21.333334a21.333333 21.333333 0 0 0 20.736-16.469333L320 810.666667v-21.333334A21.333333 21.333333 0 0 0 298.666667 768z m416-192H405.333333a21.333333 21.333333 0 0 0-20.736 16.469333L384 597.333333v21.333334a21.333333 21.333333 0 0 0 16.469333 20.736l4.864 0.597333h309.333334a21.333333 21.333333 0 0 0 20.736-16.469333l0.597333-4.864V597.333333a21.333333 21.333333 0 0 0-21.333333-21.333333z m-416 0h-21.333334a21.333333 21.333333 0 0 0-20.736 16.469333L256 597.333333v21.333334a21.333333 21.333333 0 0 0 16.469333 20.736l4.864 0.597333h21.333334a21.333333 21.333333 0 0 0 20.736-16.469333l0.597333-4.864V597.333333a21.333333 21.333333 0 0 0-21.333333-21.333333zM714.666667 384H405.333333a21.333333 21.333333 0 0 0-20.736 16.469333L384 405.333333V426.666667a21.333333 21.333333 0 0 0 16.469333 20.736l4.864 0.597333h309.333334a21.333333 21.333333 0 0 0 20.736-16.469333L736 426.666667v-21.333334a21.333333 21.333333 0 0 0-21.333333-21.333333zM298.666667 384h-21.333334a21.333333 21.333333 0 0 0-20.736 16.469333L256 405.333333V426.666667a21.333333 21.333333 0 0 0 16.469333 20.736l4.864 0.597333h21.333334a21.333333 21.333333 0 0 0 20.736-16.469333L320 426.666667v-21.333334a21.333333 21.333333 0 0 0-21.333333-21.333333zM565.333333 0a42.666667 42.666667 0 0 1 42.666667 42.666667v21.333333h69.376a42.666667 42.666667 0 0 1 42.666667 42.666667V170.666667a21.333333 21.333333 0 0 1-21.333334 21.333333H325.376a21.333333 21.333333 0 0 1-21.333333-21.333333v-64a42.666667 42.666667 0 0 1 42.666666-42.666667h69.290667V42.666667a42.666667 42.666667 0 0 1 42.666667-42.666667h106.666666z" p-id="1559"></path></svg>